<svg width="122" height="22" viewBox="0 0 122 22" fill="none" xmlns="http://www.w3.org/2000/svg">
<g clip-path="url(#clip0_12255_932)">
<g clip-path="url(#clip1_12255_932)">
<g clip-path="url(#clip2_12255_932)">
<path d="M10.4998 0L12.8572 7.60081H20.4859L14.3141 12.2984L16.6715 19.8992L10.4998 15.2016L4.32802 19.8992L6.68542 12.2984L0.513672 7.60081H8.14237L10.4998 0Z" fill="#FFC906"/>
<path d="M35.4998 0L37.8572 7.60081H45.4859L39.3141 12.2984L41.6715 19.8992L35.4998 15.2016L29.3281 19.8992L31.6855 12.2984L25.5137 7.60081H33.1424L35.4998 0Z" fill="#FFC906"/>
<path d="M61.0002 0L63.4699 7.60081H71.4618L64.9962 12.2984L67.4658 19.8992L61.0002 15.2016L54.5346 19.8992L57.0042 12.2984L50.5386 7.60081H58.5305L61.0002 0Z" fill="#FFC906"/>
<path d="M86.4998 0L88.8572 7.60081H96.4859L90.3141 12.2984L92.6715 19.8992L86.4998 15.2016L80.3281 19.8992L82.6855 12.2984L76.5137 7.60081H84.1424L86.4998 0Z" fill="#FFC906"/>
<path d="M111.5 0L113.857 7.60081H121.486L115.314 12.2984L117.672 19.8992L111.5 15.2016L105.328 19.8992L107.686 12.2984L101.514 7.60081H109.143L111.5 0Z" fill="#FFC906"/>
</g>
</g>
</g>
<defs>
<clipPath id="clip0_12255_932">
<rect width="122" height="22" fill="white"/>
</clipPath>
<clipPath id="clip1_12255_932">
<rect width="122" height="22" fill="white"/>
</clipPath>
<clipPath id="clip2_12255_932">
<rect width="122" height="22" fill="white"/>
</clipPath>
</defs>
</svg>
